<svg width="51" height="49" viewBox="0 0 51 49" fill="none" xmlns="http://www.w3.org/2000/svg">
<path d="M33.4091 8.5C30.3748 8.5 27.4626 9.91253 25.5617 12.1447C23.6609 9.91253 20.7487 8.5 17.7143 8.5C12.3432 8.5 8.12305 12.7202 8.12305 18.0913C8.12305 24.6831 14.0522 30.0542 23.0331 38.2155L25.5617 40.5L28.0903 38.1981C37.0713 30.0542 43.0004 24.6831 43.0004 18.0913C43.0004 12.7202 38.7803 8.5 33.4091 8.5ZM25.7361 35.6172L25.5617 35.7916L25.3874 35.6172C17.0865 28.1011 11.6108 23.1311 11.6108 18.0913C11.6108 14.6035 14.2266 11.9877 17.7143 11.9877C20.3999 11.9877 23.0157 13.7142 23.9399 16.1033H27.201C28.1078 13.7142 30.7236 11.9877 33.4091 11.9877C36.8969 11.9877 39.5127 14.6035 39.5127 18.0913C39.5127 23.1311 34.0369 28.1011 25.7361 35.6172Z" fill="url(#paint0_linear_131102_527)"/>
<defs>
<linearGradient id="paint0_linear_131102_527" x1="22.6957" y1="4.65999" x2="72.9453" y2="11.9119" gradientUnits="userSpaceOnUse">
<stop stop-color="#002F52"/>
<stop offset="1" stop-color="#326589"/>
</linearGradient>
</defs>
</svg>
