<svg width="38" height="39" viewBox="0 0 38 39" fill="none" xmlns="http://www.w3.org/2000/svg">
<g clip-path="url(#clip0_131102_530)">
<path d="M28.4997 9.99935H25.333C25.333 6.50018 22.4988 3.66602 18.9997 3.66602C15.5005 3.66602 12.6663 6.50018 12.6663 9.99935H9.49967C7.75801 9.99935 6.33301 11.4243 6.33301 13.166V32.166C6.33301 33.9077 7.75801 35.3327 9.49967 35.3327H28.4997C30.2413 35.3327 31.6663 33.9077 31.6663 32.166V13.166C31.6663 11.4243 30.2413 9.99935 28.4997 9.99935ZM18.9997 6.83268C20.7413 6.83268 22.1663 8.25768 22.1663 9.99935H15.833C15.833 8.25768 17.258 6.83268 18.9997 6.83268ZM28.4997 32.166H9.49967V13.166H12.6663V16.3327C12.6663 17.2035 13.3788 17.916 14.2497 17.916C15.1205 17.916 15.833 17.2035 15.833 16.3327V13.166H22.1663V16.3327C22.1663 17.2035 22.8788 17.916 23.7497 17.916C24.6205 17.916 25.333 17.2035 25.333 16.3327V13.166H28.4997V32.166Z" fill="#002F52"/>
</g>
<defs>
<clipPath id="clip0_131102_530">
<rect width="38" height="38" fill="white" transform="translate(0 0.5)"/>
</clipPath>
</defs>
</svg>
